<svg width="24" height="24" viewBox="0 0 24 24" fill="none" xmlns="http://www.w3.org/2000/svg">
<mask id="mask0_2140_13579" style="mask-type:alpha" maskUnits="userSpaceOnUse" x="0" y="0" width="24" height="24">
<rect width="24" height="24" fill="#D9D9D9"/>
</mask>
<g mask="url(#mask0_2140_13579)">
<path d="M7.90375 19C7.10175 19 6.41733 18.7168 5.8505 18.1503C5.2835 17.5838 5 16.8998 5 16.0983C5 15.2969 5.2835 14.6122 5.8505 14.0442C6.41733 13.4762 7.10175 13.1923 7.90375 13.1923H18.0962C18.8982 13.1923 19.5827 13.4755 20.1495 14.042C20.7165 14.6087 21 15.2927 21 16.094C21 16.8955 20.7165 17.5802 20.1495 18.148C19.5827 18.716 18.8982 19 18.0962 19H7.90375ZM7.90375 18H18.0962C18.6251 18 19.0746 17.8146 19.4447 17.4438C19.8149 17.0729 20 16.6226 20 16.0927C20 15.5629 19.8149 15.1137 19.4447 14.7452C19.0746 14.3766 18.6251 14.1923 18.0962 14.1923H7.90375C7.37492 14.1923 6.92542 14.3777 6.55525 14.7485C6.18508 15.1193 6 15.5697 6 16.0995C6 16.6293 6.18508 17.0785 6.55525 17.447C6.92542 17.8157 7.37492 18 7.90375 18ZM5.90375 10.8078C5.10175 10.8078 4.41733 10.5245 3.8505 9.958C3.2835 9.39133 3 8.70733 3 7.906C3 7.1045 3.2835 6.41983 3.8505 5.852C4.41733 5.284 5.10175 5 5.90375 5H16.0962C16.8982 5 17.5827 5.28325 18.1495 5.84975C18.7165 6.41625 19 7.10025 19 7.90175C19 8.70308 18.7165 9.38775 18.1495 9.95575C17.5827 10.5237 16.8982 10.8078 16.0962 10.8078H5.90375ZM5.8845 9.80775H16.0962C16.6251 9.80775 17.0746 9.62233 17.4447 9.2515C17.8149 8.88067 18 8.43033 18 7.9005C18 7.37067 17.8149 6.9215 17.4447 6.553C17.0746 6.18433 16.6251 6 16.0962 6H5.8845C5.361 6 4.91608 6.18542 4.54975 6.55625C4.18325 6.92708 4 7.37742 4 7.90725C4 8.43708 4.18325 8.88625 4.54975 9.25475C4.91608 9.62342 5.361 9.80775 5.8845 9.80775Z" fill="#222222"/>
</g>
</svg>
